<svg height="260px" viewBox="50 20 1024 260" width="1026px" xmlns="http://www.w3.org/2000/svg">
  <polyline fill="none" points="1004.442,88.007 979.033,88.007 979.033,105.628 " stroke="#BBBBBC" stroke-miterlimit="10"
            stroke-width=""/>
  <polyline fill="none" points="979.033,30.131 979.033,47.827 1004.442,47.827 " stroke="#BBBBBC" stroke-miterlimit="10"
            stroke-width=""/>
  <polyline fill="none" points="979.033,30.131 979.033,22.323 927.321,22.323 927.321,23.873 877.505,23.873 "
            stroke="#BBBBBC" stroke-miterlimit="10"
            stroke-width=""/>
  <polyline fill="none"
            points="979.033,105.628 976.79,105.628 976.79,115.912 976.79,105.404 976.79,105.628 979.033,105.628 976.79,105.628 1024.243,105.628 1024.243,30.131 979.033,30.131 "
            stroke="#BBBBBC" stroke-miterlimit="10"
            stroke-width=""/>
  <line fill="none" stroke="#BBBBBC" stroke-miterlimit="10" x1="270.193" x2="292.228" y1="88.816" y2="88.816"/>
  <line fill="none" stroke="#BBBBBC" stroke-miterlimit="10" x1="270.193" x2="292.228" y1="84.396" y2="84.396"/>
  <line fill="none" stroke="#BBBBBC" stroke-miterlimit="10" x1="270.193" x2="292.228" y1="79.744" y2="79.744"/>
  <line fill="none" stroke="#BBBBBC" stroke-miterlimit="10" x1="270.193" x2="292.228" y1="75.547" y2="75.547"/>
  <line fill="none" stroke="#BBBBBC" stroke-miterlimit="10" x1="270.193" x2="292.228" y1="71.125" y2="71.125"/>
  <line fill="none" stroke="#BBBBBC" stroke-miterlimit="10" x1="270.193" x2="292.228" y1="66.7" y2="66.7"/>
  <line fill="none" stroke="#BBBBBC" stroke-miterlimit="10" x1="270.193" x2="292.228" y1="62.278" y2="62.278"/>
  <line fill="none" stroke="#BBBBBC" stroke-miterlimit="10" x1="270.193" x2="292.228" y1="57.626" y2="57.626"/>
  <line fill="none" stroke="#BBBBBC" stroke-miterlimit="10" x1="270.193" x2="292.228" y1="53.43" y2="53.43"/>
  <line fill="none" stroke="#BBBBBC" stroke-miterlimit="10" x1="270.193" x2="292.228" y1="49.006" y2="49.006"/>
  <line fill="none" stroke="#BBBBBC" stroke-miterlimit="10" x1="270.193" x2="292.228" y1="44.581" y2="44.581"/>
  <line fill="none" stroke="#BBBBBC" stroke-miterlimit="10" x1="270.193" x2="292.228" y1="40.159" y2="40.159"/>
  <line fill="none" stroke="#BBBBBC" stroke-miterlimit="10" x1="1004.442" x2="1004.442" y1="88.007" y2="47.827"/>
  <line fill="none" stroke="#BBBBBC" stroke-miterlimit="10" x1="985.631" x2="985.631" y1="105.702" y2="88.007"/>
  <line fill="none" stroke="#BBBBBC" stroke-miterlimit="10" x1="992.355" x2="992.355" y1="105.628" y2="88.007"/>
  <line fill="none" stroke="#BBBBBC" stroke-miterlimit="10" x1="998.75" x2="998.75" y1="105.628" y2="88.007"/>
  <line fill="none" stroke="#BBBBBC" stroke-miterlimit="10" x1="1004.442" x2="1004.442" y1="88.007" y2="105.628"/>
  <line fill="none" stroke="#BBBBBC" stroke-miterlimit="10" x1="1004.442" x2="1023.913" y1="88.007" y2="88.007"/>
  <line fill="none" stroke="#BBBBBC" stroke-miterlimit="10" x1="1004.773" x2="1023.913" y1="83.509" y2="83.509"/>
  <line fill="none" stroke="#BBBBBC" stroke-miterlimit="10" x1="1004.773" x2="1023.913" y1="78.349" y2="78.349"/>
  <line fill="none" stroke="#BBBBBC" stroke-miterlimit="10" x1="1004.773" x2="1024.243" y1="73.188" y2="73.188"/>
  <line fill="none" stroke="#BBBBBC" stroke-miterlimit="10" x1="1004.442" x2="1024.243" y1="67.917" y2="67.917"/>
  <line fill="none" stroke="#BBBBBC" stroke-miterlimit="10" x1="1004.442" x2="1024.243" y1="62.867" y2="62.867"/>
  <line fill="none" stroke="#BBBBBC" stroke-miterlimit="10" x1="1024.243" x2="1004.442" y1="57.705" y2="57.705"/>
  <line fill="none" stroke="#BBBBBC" stroke-miterlimit="10" x1="1004.442" x2="1024.243" y1="52.545" y2="52.545"/>
  <line fill="none" stroke="#BBBBBC" stroke-miterlimit="10" x1="1004.442" x2="1023.913" y1="47.827" y2="47.827"/>
  <line fill="none" stroke="#BBBBBC" stroke-miterlimit="10" x1="1004.442" x2="1004.442" y1="47.827" y2="30.06"/>
  <line fill="none" stroke="#BBBBBC" stroke-miterlimit="10" x1="998.75" x2="998.75" y1="47.827" y2="30.06"/>
  <line fill="none" stroke="#BBBBBC" stroke-miterlimit="10" x1="992.355" x2="992.355" y1="47.827" y2="30.06"/>
  <line fill="none" stroke="#BBBBBC" stroke-miterlimit="10" x1="985.55" x2="985.55" y1="30.131" y2="47.827"/>
  <line fill="none" stroke="#BBBBBC" stroke-miterlimit="10" x1="927.676" x2="927.676" y1="22.323" y2="22.323"/>
  <line fill="none" stroke="#BBBBBC" stroke-miterlimit="10" x1="877.609" x2="895.5" y1="112.413" y2="112.413"/>
  <line fill="none" stroke="#BBBBBC" stroke-miterlimit="10" x1="976.748" x2="924.211" y1="158.97" y2="158.97"/>
  <line fill="none" stroke="#BBBBBC" stroke-miterlimit="10" x1="895.5" x2="816.039" y1="158.97" y2="158.97"/>
  <line fill="none" stroke="#BBBBBC" stroke-miterlimit="10" x1="789.595" x2="776.001" y1="159.088" y2="159.088"/>
  <line fill="none" stroke="#BBBBBC" stroke-miterlimit="10" x1="749.31" x2="643.312" y1="158.97" y2="158.97"/>
  <line fill="none" stroke="#BBBBBC" stroke-miterlimit="10" x1="616.62" x2="517.651" y1="158.671" y2="158.671"/>
  <line fill="none" stroke="#BBBBBC" stroke-miterlimit="10" x1="491.456" x2="480.86" y1="158.671" y2="158.671"/>
  <line fill="none" stroke="#BBBBBC" stroke-miterlimit="10" x1="812.961" x2="812.961" y1="240.458" y2="240.458"/>
  <line fill="none" stroke="#BBBBBC" stroke-miterlimit="10" x1="829.589" x2="829.589" y1="180.529" y2="231.661"/>
  <line fill="none" stroke="#BBBBBC" stroke-miterlimit="10" x1="53.333" x2="53.333" y1="158.558" y2="180.095"/>
  <line fill="none" stroke="#BBBBBC" stroke-miterlimit="10" x1="976.748" x2="976.748" y1="181.581" y2="158.36"/>
  <line fill="none" stroke="#BBBBBC" stroke-miterlimit="10" x1="803.17" x2="830.437" y1="231.661" y2="231.661"/>
  <line fill="none" stroke="#BBBBBC" stroke-miterlimit="10" x1="803.17" x2="830.121" y1="226.227" y2="226.227"/>
  <line fill="none" stroke="#BBBBBC" stroke-miterlimit="10" x1="803.17" x2="830.121" y1="220.5" y2="220.5"/>
  <line fill="none" stroke="#BBBBBC" stroke-miterlimit="10" x1="803.17" x2="830.121" y1="214.768" y2="214.768"/>
  <line fill="none" stroke="#BBBBBC" stroke-miterlimit="10" x1="803.17" x2="830.121" y1="209.039" y2="209.039"/>
  <line fill="none" stroke="#BBBBBC" stroke-miterlimit="10" x1="803.17" x2="830.121" y1="203.012" y2="203.012"/>
  <line fill="none" stroke="#BBBBBC" stroke-miterlimit="10" x1="803.17" x2="830.121" y1="197.577" y2="197.577"/>
  <line fill="none" stroke="#BBBBBC" stroke-miterlimit="10" x1="803.17" x2="830.121" y1="191.849" y2="191.849"/>
  <line fill="none" stroke="#BBBBBC" stroke-miterlimit="10" x1="803.17" x2="830.121" y1="186.117" y2="186.117"/>
  <line fill="none" stroke="#BBBBBC" stroke-miterlimit="10" x1="803.17" x2="830.437" y1="251.581" y2="251.581"/>
  <rect fill="#BBBBBC" height="138.137" id="37" stroke="#FFFFFF" stroke-miterlimit="10" width="219.076" x="52.452"
        y="21.525"/>

  <text fill="#FFFFFF" id="37t" text-anchor="middle" x="161.99" y="90.5935">Tenis stołowy</text>
  <rect fill="#BBBBBC" height="92.4" id="38" stroke="#FFFFFF" stroke-miterlimit="10" width="136.624" x="291.018"
        y="21.525"/>

  <text fill="#FFFFFF" id="38t" text-anchor="middle" x="359.33" y="67.725">Magazyn</text>
  <rect fill="#BBBBBC" height="92.151" id="39" stroke="#FFFFFF" stroke-miterlimit="10" width="93.689" x="427.641"
        y="21.525"/>

  <text fill="#FFFFFF" id="39t" text-anchor="middle" x="474.4855" y="67.6005">Kuchnia</text>
  <rect fill="#BBBBBC" height="92.151" id="40" stroke="#FFFFFF" stroke-miterlimit="10" width="222.631" x="521.33"
        y="21.525"/>

  <text fill="#FFFFFF" id="40t" text-anchor="middle" x="632.6455" y="67.6005">Bufet</text>
  <rect fill="#BBBBBC" height="92.151" id="41" stroke="#FFFFFF" stroke-miterlimit="10" width="88.414" x="743.961"
        y="21.525"/>

  <text fill="#FFFFFF" id="41t" text-anchor="middle" x="788.168" y="67.6005">11</text>
  <rect fill="#BBBBBC" height="92.151" id="42" stroke="#FFFFFF" stroke-miterlimit="10" width="45.824" x="832.375"
        y="21.525"/>

  <text fill="#FFFFFF" id="42t" text-anchor="middle" x="855.287" y="67.6005">06sz</text>
  <rect fill="#BBBBBC" height="45.233" id="43" stroke="#FFFFFF" stroke-miterlimit="10" width="193.157" x="291.018"
        y="114.428"/>

  <text fill="#FFFFFF" id="43t" text-anchor="middle" x="387.5965" y="137.0445">Magazyn</text>
  <rect fill="#BBBBBC" height="43.338" id="44" stroke="#FFFFFF" stroke-miterlimit="10" width="49.886" x="927.95"
        y="115.495"/>

  <text fill="#FFFFFF" id="44t" text-anchor="middle" x="952.893" y="137.164">07</text>
  <rect fill="#BBBBBC" height="73.438" id="45" stroke="#FFFFFF" stroke-miterlimit="10" width="754" x="52.452"
        y="179.121"/>

  <text fill="#FFFFFF" id="45t" text-anchor="middle" x="429.452" y="215.84">Szatnie</text>
  <rect fill="#BCBCBC" height="73.438" id="61" stroke="#FFFFFF" stroke-miterlimit="10" width="148.5" x="829"
        y="179.121"/>

  <text fill="#FFFFFF" id="61t" text-anchor="middle" x="903.089" y="215.843">Szatnie</text>
</svg>
